mtllib test.mtl
#Num verts: 8
v -1.987873 2.034806 -0.000006
v -1.987873 0.000006 -2.034786
v -1.987873 -0.000006 2.034786
v -1.987873 -2.034806 0.000006
v 1.987873 2.034806 -0.000006
v 1.987873 0.000006 -2.034786
v 1.987873 -0.000006 2.034786
v 1.987873 -2.034806 0.000006
#Num norms: 8
vn -0.577350 0.816497 0.000000
vn -0.577351 0.000000 -0.816496
vn -0.577351 -0.000000 0.816496
vn -0.577350 -0.816497 -0.000000
vn 0.577350 0.816497 0.000000
vn 0.577351 0.000000 -0.816496
vn 0.577351 -0.000000 0.816496
vn 0.577350 -0.816497 -0.000000
#Num uv: 14
vt 0.000000 0.486275
vt 0.000000 1.000000
vt 1.003922 0.486275
vt 1.003922 1.000000
vt 1.003922 0.486275
vt 0.000000 1.000000
vt 0.000000 0.486275
vt 0.000000 0.486275
vt 0.000000 0.000000
vt 1.003922 0.486275
vt 1.003922 0.000000
vt 1.003922 0.486275
vt 0.000000 0.000000
vt 0.000000 0.486275
o filename
#Num groups: 1
g group_1
usemtl test-0
f 3/1/3 4/2/4 7/3/7
f 4/2/4 8/4/8 7/3/7
f 7/3/7 8/4/8 6/5/6
f 8/4/8 4/6/4 6/5/6
f 6/5/6 4/6/4 2/7/2
f 4/6/4 3/8/3 2/7/2
f 2/7/2 3/8/3 1/9/1
f 3/8/3 7/10/7 1/9/1
f 1/9/1 7/10/7 5/11/5
f 7/10/7 6/12/6 5/11/5
f 5/11/5 6/12/6 1/13/1
f 6/12/6 2/14/2 1/13/1
